<?xml version="1.0" encoding="UTF-8"?>
<svg width="26px" height="14px" viewBox="0 0 26 14" version="1.1" xmlns="http://www.w3.org/2000/svg" xmlns:xlink="http://www.w3.org/1999/xlink">
    <title>NEW-1</title>
    <g id="NEW-1" stroke="none" stroke-width="1" fill="none" fill-rule="evenodd">
        <g id="编组-28">
            <polygon id="路径" fill="#FF7201" points="26 -4.25492974e-14 26 14 2 14 2 8.5 0 5 2 5 2 -4.25492974e-14"></polygon>
            <path d="M5.7734375,10.0507812 L5.77279974,5.62173151 C5.77024872,5.2894611 5.76004464,5.06529018 5.7421875,4.94921875 L5.7421875,4.94921875 L5.765625,4.94921875 C5.81770833,5.07942708 5.88671875,5.2109375 5.97265625,5.34375 L5.97265625,5.34375 L9.015625,10.0507812 L9.94140625,10.0507812 L9.94140625,4 L9.16796875,4 L9.16796875,8.16015625 C9.16796875,8.57682292 9.18098958,8.87109375 9.20703125,9.04296875 L9.20703125,9.04296875 L9.19140625,9.04296875 C9.16536458,8.98307292 9.08203125,8.84375 8.94140625,8.625 L8.94140625,8.625 L5.98046875,4 L5,4 L5,10.0507812 L5.7734375,10.0507812 Z M14.7578125,10.0507812 L14.7578125,9.359375 L12.2851562,9.359375 L12.2851562,7.32421875 L14.4492188,7.32421875 L14.4492188,6.6328125 L12.2851562,6.6328125 L12.2851562,4.6953125 L14.6210938,4.6953125 L14.6210938,4 L11.5039062,4 L11.5039062,10.0507812 L14.7578125,10.0507812 Z M18.0039062,10.0507812 L19.234375,5.68359375 C19.2916667,5.48828125 19.328125,5.28255208 19.34375,5.06640625 L19.34375,5.06640625 L19.359375,5.06640625 C19.3697917,5.28515625 19.4023438,5.49348958 19.4570312,5.69140625 L19.4570312,5.69140625 L20.6757812,10.0507812 L21.5859375,10.0507812 L23.28125,4 L22.4414062,4 L21.2539062,8.58984375 C21.1914062,8.81640625 21.1536458,9.01432292 21.140625,9.18359375 L21.140625,9.18359375 L21.125,9.18359375 C21.0989583,8.94921875 21.0651042,8.75651042 21.0234375,8.60546875 L21.0234375,8.60546875 L19.7734375,4 L19.0039062,4 L17.6953125,8.5703125 C17.6223958,8.828125 17.5794271,9.03515625 17.5664062,9.19140625 L17.5664062,9.19140625 L17.5429688,9.19140625 C17.5325521,8.98307292 17.5,8.77604167 17.4453125,8.5703125 L17.4453125,8.5703125 L16.2109375,4 L15.3476562,4 L17.1015625,10.0507812 L18.0039062,10.0507812 Z" id="NEW" stroke="#FFFFFF" stroke-width="0.2" fill="#FFFFFF" fill-rule="nonzero"></path>
        </g>
    </g>
</svg>