<?xml version="1.0" encoding="UTF-8"?>
<svg width="20px" height="14px" viewBox="0 0 20 14" version="1.1" xmlns="http://www.w3.org/2000/svg" xmlns:xlink="http://www.w3.org/1999/xlink">
    <title>NEW-2</title>
    <g id="NEW-2" stroke="none" stroke-width="1" fill="none" fill-rule="evenodd">
        <g id="编组-56备份">
            <g id="编组">
                <g id="编组-27">
                    <polygon id="矩形" points="-6.06320549e-13 0 20 0 20 14 -6.06320549e-13 14"></polygon>
                    <path d="M1.7734375,10.0507812 L1.77279974,5.62173151 C1.77024872,5.2894611 1.76004464,5.06529018 1.7421875,4.94921875 L1.7421875,4.94921875 L1.765625,4.94921875 C1.81770833,5.07942708 1.88671875,5.2109375 1.97265625,5.34375 L1.97265625,5.34375 L5.015625,10.0507812 L5.94140625,10.0507812 L5.94140625,4 L5.16796875,4 L5.16796875,8.16015625 C5.16796875,8.57682292 5.18098958,8.87109375 5.20703125,9.04296875 L5.20703125,9.04296875 L5.19140625,9.04296875 C5.16536458,8.98307292 5.08203125,8.84375 4.94140625,8.625 L4.94140625,8.625 L1.98046875,4 L1,4 L1,10.0507812 L1.7734375,10.0507812 Z M10.7578125,10.0507812 L10.7578125,9.359375 L8.28515625,9.359375 L8.28515625,7.32421875 L10.4492188,7.32421875 L10.4492188,6.6328125 L8.28515625,6.6328125 L8.28515625,4.6953125 L10.6210938,4.6953125 L10.6210938,4 L7.50390625,4 L7.50390625,10.0507812 L10.7578125,10.0507812 Z M14.0039062,10.0507812 L15.234375,5.68359375 C15.2916667,5.48828125 15.328125,5.28255208 15.34375,5.06640625 L15.34375,5.06640625 L15.359375,5.06640625 C15.3697917,5.28515625 15.4023438,5.49348958 15.4570312,5.69140625 L15.4570312,5.69140625 L16.6757812,10.0507812 L17.5859375,10.0507812 L19.28125,4 L18.4414062,4 L17.2539062,8.58984375 C17.1914062,8.81640625 17.1536458,9.01432292 17.140625,9.18359375 L17.140625,9.18359375 L17.125,9.18359375 C17.0989583,8.94921875 17.0651042,8.75651042 17.0234375,8.60546875 L17.0234375,8.60546875 L15.7734375,4 L15.0039062,4 L13.6953125,8.5703125 C13.6223958,8.828125 13.5794271,9.03515625 13.5664062,9.19140625 L13.5664062,9.19140625 L13.5429688,9.19140625 C13.5325521,8.98307292 13.5,8.77604167 13.4453125,8.5703125 L13.4453125,8.5703125 L12.2109375,4 L11.3476562,4 L13.1015625,10.0507812 L14.0039062,10.0507812 Z" id="NEW" stroke="#FF7201" stroke-width="0.2" fill="#FF7201" fill-rule="nonzero"></path>
                </g>
            </g>
        </g>
    </g>
</svg>