<?xml version="1.0" encoding="UTF-8"?>
<svg width="64px" height="64px" viewBox="0 0 64 64" version="1.1" xmlns="http://www.w3.org/2000/svg" xmlns:xlink="http://www.w3.org/1999/xlink">
    <!-- Generator: Sketch 53.2 (72643) - https://sketchapp.com -->
    <title>分组 10</title>
    <desc>Created with Sketch.</desc>
    <g id="页面-1" stroke="none" stroke-width="1" fill="none" fill-rule="evenodd">
        <g id="二级导航-copy" transform="translate(-1213.000000, -6026.000000)">
            <g id="Group-21" transform="translate(0.000000, 5901.000000)">
                <g id="分组-10" transform="translate(1213.000000, 125.000000)">
                    <circle id="椭圆形" fill="#FFFFFF" fill-rule="nonzero" opacity="0.051734561" cx="32" cy="32" r="32"></circle>
                    <g id="Group" transform="translate(17.000000, 16.000000)">
                        <path d="M18.790957,25.7142501 L18.2376215,25.3791912 C18.1301163,25.3138653 17.9361854,25.1916425 17.6695304,25.0156839 C17.2289699,24.7238244 16.7388728,24.3824436 16.2118866,23.9947025 C14.707868,22.8862687 13.2049034,21.6208418 11.7989042,20.2152802 C10.3929051,18.8107723 9.12708428,17.3072218 8.01935932,15.8047249 C7.63044351,15.2779027 7.28895646,14.7879581 6.99806009,14.3475348 C6.82099273,14.0799091 6.69873193,13.8870922 6.63443962,13.7796205 L6.29822243,13.2254035 L9.31363739,10.2119807 L4.20081741,5.10075188 L0.404408917,8.89597886 C-1.21343868,10.5122693 2.1255458,17.0438107 8.58323454,23.4236273 C15.1189172,29.8793063 21.535501,33.1930178 23.1217295,31.607283 L26.9191919,27.812056 L21.805318,22.7008272 L18.790957,25.7142501 Z" id="Fill-1" stroke="#FFFFFF" stroke-width="2" fill-rule="nonzero"></path>
                        <g id="Group-2" transform="translate(12.424242, 5.100752)"></g>
                        <path d="M29.6982759,18.6144204 C29.8961761,17.6214894 30,16.5943672 30,15.5428571 C30,6.95877417 23.0807643,0 14.5454545,0 C13.359293,0 12.2043427,0.134394599 11.094837,0.38886907" id="路径" stroke="#FFFFFF" stroke-width="2" fill-rule="nonzero"></path>
                        <path d="M23.0943571,11.6145293 C22.2396496,9.91946337 20.4514658,8.75347996 18.3835152,8.75424581 C16.3736495,8.75499016 14.6272389,9.85766503 13.7448747,11.4763966" id="Oval-2" stroke="#FFFFFF" stroke-width="2" transform="translate(18.419616, 10.184387) rotate(44.000000) translate(-18.419616, -10.184387) "></path>
                    </g>
                </g>
            </g>
        </g>
    </g>
</svg>